<svg aria-hidden="true" style="position: absolute; width: 0; height: 0; overflow: hidden;"
    version="1.1" xmlns="http://www.w3.org/2000/svg" xmlns:xlink="http://www.w3.org/1999/xlink">
    <defs>
        <symbol id="icon-logo" viewBox="0 0 41 32">
            <path
                d="M10.328 7.834c3.237 0 5.709 0.794 7.415 2.383 1.736 1.589 2.604 3.958 2.604 7.106v14.124h-4.017v-3.090c-0.706 1.089-1.721 1.927-3.046 2.516-1.295 0.559-2.84 0.839-4.634 0.839-2.619 0-4.723-0.633-6.312-1.898-1.56-1.265-2.339-2.928-2.339-4.988s0.75-3.708 2.251-4.943c1.501-1.265 3.884-1.898 7.15-1.898h6.709v-0.839c0-1.824-0.53-3.222-1.589-4.193s-2.619-1.457-4.679-1.457c-1.383 0-2.737 0.235-4.061 0.706-1.324 0.441-2.442 1.045-3.354 1.81l-1.766-3.178c1.206-0.971 2.648-1.707 4.326-2.207 1.677-0.53 3.457-0.794 5.341-0.794zM9.357 28.447c1.618 0 3.016-0.353 4.193-1.059 1.177-0.736 2.030-1.766 2.56-3.090v-3.266h-6.532c-3.59 0-5.385 1.206-5.385 3.619 0 1.177 0.456 2.104 1.368 2.781s2.178 1.015 3.796 1.015z"></path>
            <path
                d="M40.607 19.884c0 0.324-0.029 0.75-0.088 1.28h-18.979c0.265 2.060 1.162 3.722 2.692 4.988 1.559 1.236 3.487 1.854 5.782 1.854 2.795 0 5.046-0.942 6.753-2.825l2.339 2.737c-1.059 1.236-2.383 2.177-3.972 2.825-1.56 0.647-3.31 0.971-5.252 0.971-2.472 0-4.664-0.5-6.577-1.501-1.913-1.030-3.399-2.457-4.458-4.281-1.030-1.824-1.545-3.884-1.545-6.179 0-2.266 0.5-4.311 1.501-6.135 1.030-1.824 2.428-3.237 4.193-4.237 1.795-1.030 3.811-1.545 6.047-1.545s4.222 0.515 5.959 1.545c1.766 1 3.134 2.413 4.105 4.237 1 1.824 1.501 3.914 1.501 6.268zM29.043 11.41c-2.030 0-3.737 0.618-5.12 1.854-1.354 1.236-2.148 2.854-2.383 4.855h15.007c-0.235-1.972-1.045-3.575-2.428-4.811-1.354-1.265-3.046-1.898-5.076-1.898z"></path>
            <path d="M37.517 3.31h-15.448v-3.31h15.448v3.31z"></path>
        </symbol>
        <symbol id="icon-facebook" viewBox="0 0 32 32">
            <path stroke-linejoin="round" stroke-linecap="round" stroke-miterlimit="4"
                stroke-width="2.2857"
                d="M24 2.667h-4c-1.768 0-3.464 0.702-4.714 1.953s-1.953 2.946-1.953 4.714v4h-4v5.333h4v10.667h5.333v-10.667h4l1.333-5.333h-5.333v-4c0-0.354 0.14-0.693 0.39-0.943s0.589-0.391 0.943-0.391h4v-5.333z"></path>
        </symbol>
        <symbol id="icon-instagram" viewBox="0 0 32 32">
            <path stroke-linejoin="round" stroke-linecap="round" stroke-miterlimit="4"
                stroke-width="2.2857"
                d="M22.667 2.667h-13.333c-3.682 0-6.667 2.985-6.667 6.667v13.333c0 3.682 2.985 6.667 6.667 6.667h13.333c3.682 0 6.667-2.985 6.667-6.667v-13.333c0-3.682-2.985-6.667-6.667-6.667z"></path>
            <path stroke-linejoin="round" stroke-linecap="round" stroke-miterlimit="4"
                stroke-width="2.2857"
                d="M21.333 15.16c0.164 1.11-0.025 2.243-0.542 3.239s-1.334 1.803-2.336 2.308c-1.002 0.504-2.137 0.68-3.245 0.502s-2.131-0.701-2.924-1.494c-0.793-0.793-1.316-1.816-1.494-2.924s-0.003-2.243 0.502-3.245c0.504-1.002 1.312-1.819 2.307-2.336s2.129-0.706 3.239-0.542c1.132 0.168 2.18 0.695 2.989 1.504s1.337 1.857 1.504 2.989z"></path>
            <path stroke-linejoin="round" stroke-linecap="round" stroke-miterlimit="4"
                stroke-width="2.2857" d="M23.333 8.667h0.013"></path>
        </symbol>
        <symbol id="icon-Burger" viewBox="0 0 32 32">
            <path
                d="M4 5.333h24v2.667h-24v-2.667zM12 14.667h16v2.667h-16v-2.667zM4 24h24v2.667h-24v-2.667z"></path>
        </symbol>
        <symbol id="icon-Logo" viewBox="0 0 41 32">
            <path
                d="M16.241 31.144v-4.916l-0.219-0.922v-8.384c0-1.785-0.527-3.16-1.58-4.126-1.024-0.995-2.575-1.492-4.653-1.492-1.375 0-2.721 0.234-4.038 0.702-1.317 0.439-2.429 1.039-3.336 1.8l-1.756-3.161c1.2-0.966 2.634-1.697 4.302-2.195 1.697-0.527 3.468-0.79 5.311-0.79 3.19 0 5.648 0.775 7.374 2.326s2.59 3.921 2.59 7.111v14.047h-3.994zM8.604 31.407c-1.727 0-3.248-0.293-4.565-0.878-1.288-0.585-2.283-1.39-2.985-2.414-0.702-1.053-1.054-2.239-1.054-3.556 0-1.258 0.293-2.4 0.878-3.424 0.615-1.024 1.595-1.844 2.941-2.458 1.375-0.615 3.219-0.922 5.531-0.922h7.375v3.029h-7.199c-2.107 0-3.526 0.351-4.258 1.053s-1.097 1.551-1.097 2.546c0 1.141 0.454 2.063 1.361 2.765 0.907 0.673 2.166 1.010 3.775 1.010 1.58 0 2.956-0.351 4.126-1.053 1.2-0.702 2.063-1.727 2.59-3.073l0.834 2.897c-0.556 1.375-1.536 2.473-2.941 3.292-1.405 0.79-3.175 1.185-5.311 1.185z">
            </path>
            <path
                d="M29.718 31.407c-2.487 0-4.682-0.512-6.584-1.536-1.873-1.024-3.336-2.429-4.39-4.214-1.024-1.785-1.536-3.834-1.536-6.145s0.497-4.36 1.492-6.145c1.024-1.785 2.414-3.175 4.17-4.17 1.785-1.024 3.79-1.536 6.014-1.536 2.253 0 4.243 0.498 5.97 1.492s3.073 2.4 4.038 4.214c0.995 1.785 1.492 3.878 1.492 6.277 0 0.176-0.015 0.38-0.044 0.614 0 0.234-0.015 0.454-0.044 0.659h-19.797v-3.029h17.602l-1.712 1.053c0.029-1.492-0.278-2.824-0.922-3.995s-1.536-2.078-2.678-2.722c-1.112-0.673-2.414-1.010-3.907-1.010-1.463 0-2.765 0.337-3.907 1.010-1.141 0.644-2.034 1.566-2.678 2.765-0.644 1.171-0.966 2.517-0.966 4.038v0.702c0 1.551 0.351 2.941 1.053 4.17 0.732 1.2 1.741 2.136 3.029 2.809s2.765 1.010 4.433 1.010c1.375 0 2.619-0.234 3.731-0.702 1.141-0.468 2.136-1.171 2.985-2.107l2.327 2.721c-1.053 1.229-2.37 2.166-3.951 2.809-1.551 0.644-3.292 0.966-5.224 0.966z">
            </path>
            <path d="M37.311 3.292h-15.364v-3.292h15.364v3.292z"></path>
        </symbol>
        <symbol id="icon-tel" viewBox="0 0 32 32">
            <path
                d="M29.276 6.061l-3.873-3.869c-0.473-0.473-1.105-0.738-1.775-0.738s-1.302 0.262-1.775 0.738l-4.171 4.163c-0.473 0.473-0.738 1.109-0.738 1.778 0 0.673 0.262 1.302 0.738 1.778l3.258 3.261c-0.742 1.729-1.809 3.3-3.142 4.629-1.335 1.342-2.895 2.4-4.625 3.149l-3.258-3.261c-0.473-0.473-1.105-0.738-1.775-0.738-0.33-0.001-0.657 0.063-0.962 0.19s-0.581 0.313-0.813 0.548l-4.175 4.163c-0.473 0.473-0.738 1.109-0.738 1.778 0 0.673 0.262 1.302 0.738 1.778l3.869 3.869c0.807 0.807 1.92 1.269 3.062 1.269 0.236 0 0.465-0.018 0.698-0.058 4.814-0.793 9.593-3.356 13.451-7.21 3.855-3.861 6.415-8.639 7.215-13.456 0.229-1.367-0.229-2.774-1.211-3.76zM27.909 9.388c-0.709 4.287-3.015 8.563-6.487 12.035s-7.746 5.777-12.033 6.486c-0.538 0.091-1.091-0.091-1.484-0.48l-3.8-3.8 4.029-4.032 4.389 4.396 0.785-0.291c2.382-0.875 4.544-2.258 6.338-4.053s3.176-3.957 4.051-6.339l0.291-0.785-4.393-4.389 4.029-4.032 3.8 3.8c0.393 0.393 0.575 0.945 0.484 1.483z">
            </path>
        </symbol>
        <symbol id="icon-x" viewBox="0 0 32 32">
            <path stroke-linejoin="round" stroke-linecap="round" stroke-miterlimit="4"
                stroke-width="2.6667"
                d="M24 8l-16 16"></path>
            <path stroke-linejoin="round" stroke-linecap="round" stroke-miterlimit="4"
                stroke-width="2.6667"
                d="M8 8l16 16"></path>
        </symbol>
    </defs>
</svg>